<svg width="386" height="147" viewBox="0 0 386 147" fill="none" xmlns="http://www.w3.org/2000/svg">
<path d="M292.641 18.3977C295.055 13.9615 303.418 6.65524 310.451 15.6577C315.344 21.9206 311.43 26.4222 299.687 32.489C297.991 33.9895 294.794 38.2821 295.577 43.449C296.556 49.9075 284.03 56.366 277.767 45.9932C276.658 42.5356 276.084 35.3073 282.66 34.0547C289.236 32.8022 288.401 39.7957 287.161 43.449" stroke="#08D75F" stroke-width="3"/>
<path d="M356.835 12.5111C350.311 10.6844 337.264 10.2017 337.264 22.8839" stroke="#08D75F" stroke-width="3"/>
<path d="M338.243 94.7275C340.722 96.7499 345.053 102.165 342.548 107.645" stroke="#4285F4" stroke-width="3"/>
<path d="M298.121 53.628C317.218 56.9483 324.738 45.6045 341.178 37.7753C357.618 29.9461 365.417 39.1347 385.018 46.7781" stroke="url(#paint0_linear_145_4630)" stroke-width="3"/>
<path d="M295.969 59.3034C314.013 62.0309 323.578 60.0895 339.613 48.7349C352.005 40.2618 363.512 42.7011 383.452 56.5635" stroke="url(#paint1_linear_145_4630)" stroke-width="3"/>
<path d="M296.948 64.978C309.511 69.3128 317.579 67.7069 338.243 57.5409C353.392 48.0503 362.7 49.9779 381.496 64.978" stroke="url(#paint2_linear_145_4630)" stroke-width="3"/>
<path d="M301.84 73.0029C314.85 75.0306 321.692 73.305 333.35 66.7401C353.661 58.3701 363.322 59.5306 377.19 73.0029" stroke="url(#paint3_linear_145_4630)" stroke-width="3"/>
<path d="M318.475 80.6358C338.634 71.8286 362.693 61.6852 373.666 80.6358" stroke="url(#paint4_linear_145_4630)" stroke-width="3"/>
<path d="M334.328 91.3988C344.817 83.4933 351.757 83.3649 365.446 88.4632" stroke="url(#paint5_linear_145_4630)" stroke-width="3"/>
<path d="M327.479 85.9195C343.683 75.4785 353.388 73.8773 369.948 83.1795" stroke="url(#paint6_linear_145_4630)" stroke-width="3"/>
<path d="M352.921 19.4053C359.184 18.1005 371.044 19.0921 368.383 33.4966" stroke="#08D75F" stroke-width="3"/>
<path d="M357.227 26.4512L359.967 29.1912" stroke="#08D75F" stroke-width="3"/>
<path d="M299.296 19.377L302.036 22.1169" stroke="#08D75F" stroke-width="3"/>
<path d="M331.002 20.9424C331.524 27.14 335.66 37.2257 348.029 27.988" stroke="#08D75F" stroke-width="3"/>
<path d="M274.44 25.8344C276.919 23.4206 283.678 20.0413 290.88 25.8344" stroke="#08D75F" stroke-width="3"/>
<path d="M268.765 43.841C267.395 54.9967 280.028 61.6679 294.599 60.4766C300.682 75.1732 306.661 79.2225 321.02 80.4393C328.546 87.5323 332.572 90.9778 339.026 95.1178C364.547 99.0321 377.711 76.3946 381.104 64.5866C386.78 52.4525 383.586 38.9483 379.93 32.6854C369.553 14.9118 360.964 8.03397 339.221 2.93701C284.265 -3.79552 269.352 27.4011 268.765 43.841Z" stroke="url(#paint7_linear_145_4630)" stroke-width="3"/>
<path d="M294.99 61.4222C297.143 55.1594 304.188 43.1035 315.148 44.9823C326.108 46.8612 326.63 26.8463 325.521 16.604C325.13 12.9507 327.165 6.03546 338.438 7.60117C332.11 5.18738 319.024 3.84348 317.301 17.7782C318.345 25.6068 316.871 40.9115 302.623 39.5024" stroke="url(#paint8_linear_145_4630)" stroke-width="3"/>
<path d="M45.5426 91.9727C43.863 91.9727 42.2093 91.7904 40.5817 91.4258C35.764 90.306 31.6234 87.806 28.1598 83.9258C25.8421 81.3086 24.0648 78.3398 22.8278 75.0195C21.6038 71.6992 20.9919 68.2096 20.9919 64.5508C20.9919 60.8789 21.6038 57.3828 22.8278 54.0625C24.0648 50.7422 25.8421 47.7734 28.1598 45.1562C30.4255 42.6302 33.0296 40.6706 35.9723 39.2773C39.0322 37.832 42.2223 37.1094 45.5426 37.1094C48.863 37.1094 52.0531 37.832 55.113 39.2773C58.0557 40.6706 60.6598 42.6302 62.9255 45.1562C65.2562 47.7734 67.0335 50.7422 68.2575 54.0625H60.4059C59.3382 49.9089 57.7692 46.4258 55.6989 43.6133C53.6286 40.8008 51.2393 38.9648 48.5309 38.1055C47.958 38.0273 46.8903 37.9883 45.3278 37.9883C44.1169 37.9883 43.3031 38.0078 42.8864 38.0469C39.514 38.9974 36.6755 40.8789 34.3708 43.6914C32.0791 46.4909 30.4906 49.8828 29.6051 53.8672C29.1364 55.9245 28.902 58.0469 28.902 60.2344C28.902 62.8516 29.182 65.3125 29.7419 67.6172C30.7835 72.0703 32.5153 75.931 34.9372 79.1992C37.3721 82.4544 40.2106 84.8763 43.4528 86.4648C45.7966 87.6107 48.2119 88.1836 50.6989 88.1836C51.6364 88.1836 52.5869 88.099 53.5505 87.9297C57.7432 87.0312 61.2262 84.8307 63.9997 81.3281C65.4841 79.2839 66.6755 77.0312 67.5739 74.5703H68.4137C67.1898 78.0729 65.3604 81.1914 62.9255 83.9258C60.6598 86.4648 58.0557 88.431 55.113 89.8242C52.0661 91.2565 48.876 91.9727 45.5426 91.9727ZM91.4411 91.7969C89.1104 91.7969 86.8838 91.3607 84.7614 90.4883C82.639 89.6029 80.7445 88.3268 79.0778 86.6602C77.4111 84.9935 76.1351 83.099 75.2497 80.9766C74.3773 78.8542 73.9411 76.6276 73.9411 74.2969C73.9411 71.9531 74.3773 69.7266 75.2497 67.6172C76.1351 65.4948 77.4111 63.6003 79.0778 61.9336C80.7445 60.2669 82.639 58.9974 84.7614 58.125C86.8838 57.2396 89.1104 56.7969 91.4411 56.7969C93.7848 56.7969 96.0179 57.2396 98.1403 58.125C100.263 58.9974 102.151 60.2669 103.804 61.9336C105.471 63.6003 106.741 65.4948 107.613 67.6172C108.498 69.7266 108.941 71.9531 108.941 74.2969C108.941 76.6276 108.498 78.8542 107.613 80.9766C106.741 83.099 105.471 84.9935 103.804 86.6602C102.151 88.3268 100.263 89.6029 98.1403 90.4883C96.0179 91.3607 93.7848 91.7969 91.4411 91.7969ZM91.4411 91.0156L92.2028 90.9961C93.7262 90.7227 95.0934 89.8242 96.3044 88.3008C97.5153 86.7643 98.4723 84.7786 99.1755 82.3438C99.8916 79.8958 100.25 77.207 100.25 74.2773C100.25 71.3867 99.8981 68.737 99.195 66.3281C98.5049 63.9062 97.5609 61.9271 96.363 60.3906C95.1781 58.8411 93.8369 57.9102 92.3395 57.5977L91.4411 57.5781C91.1286 57.5781 90.8226 57.5846 90.5231 57.5977C89.0257 57.9232 87.6781 58.8542 86.4801 60.3906C85.2953 61.9271 84.3512 63.9062 83.6481 66.3281C82.958 68.737 82.613 71.3867 82.613 74.2773C82.613 77.207 82.971 79.8893 83.6872 82.3242C84.4033 84.7591 85.3604 86.7448 86.5583 88.2812C87.7692 89.8177 89.1364 90.7227 90.6598 90.9961L91.4411 91.0156ZM154.898 53.0664C152.685 52.1029 150.504 51.9531 148.355 52.6172C146.22 53.2812 144.221 54.375 142.359 55.8984C141.461 56.849 140.666 57.7604 139.976 58.6328C143.909 60.6771 146.721 63.7435 148.414 67.832C149.755 71.3737 149.976 74.9349 149.078 78.5156C148.192 82.0833 146.324 85.1172 143.472 87.6172C140.425 90.1302 136.981 91.4974 133.14 91.7188C129.299 91.9531 125.718 90.9961 122.398 88.8477C121.617 89.2773 120.829 89.7461 120.035 90.2539C120.009 90.2669 119.781 90.4948 119.351 90.9375C118.922 91.3672 118.466 91.9401 117.984 92.6562C117.502 93.3854 117.164 94.1927 116.968 95.0781C116.786 95.9635 116.916 96.8555 117.359 97.7539C118.101 98.7305 118.993 99.5443 120.035 100.195C121.845 101.198 123.726 101.608 125.679 101.426C127.632 101.257 129.514 100.736 131.324 99.8633C132.652 99.2253 134.019 98.4961 135.425 97.6758C136.949 96.7643 138.511 95.9245 140.113 95.1562C141.715 94.401 143.342 93.8997 144.996 93.6523C146.662 93.418 148.349 93.6263 150.054 94.2773C152.125 95.1758 153.661 96.569 154.664 98.457C155.679 100.358 156.272 102.435 156.441 104.688C156.61 106.94 156.467 109.049 156.011 111.016C155.894 113.398 155.139 115.56 153.746 117.5C152.353 119.44 150.744 121.12 148.922 122.539C145.823 125 142.379 126.849 138.59 128.086C134.8 129.323 130.933 129.798 126.988 129.512C124.384 129.29 121.819 128.672 119.293 127.656C116.767 126.654 114.507 125.26 112.515 123.477C110.51 121.706 109.006 119.57 108.004 117.07L108.726 116.777C109.846 119.525 111.552 121.803 113.843 123.613C116.135 125.423 118.707 126.758 121.558 127.617C124.423 128.49 127.261 128.88 130.074 128.789C134.019 128.646 137.821 127.767 141.48 126.152C145.152 124.551 148.355 122.331 151.09 119.492C152.353 118.203 153.388 116.738 154.195 115.098C155.002 113.457 155.334 111.712 155.191 109.863C154.996 108.105 154.358 106.589 153.277 105.312C152.209 104.036 150.836 103.132 149.156 102.598C147.424 102.09 145.725 101.901 144.058 102.031C142.392 102.174 140.738 102.507 139.097 103.027C137.47 103.548 135.842 104.134 134.215 104.785C132.691 105.397 131.155 105.957 129.605 106.465C128.056 106.973 126.493 107.311 124.918 107.48C123.043 107.702 121.142 107.585 119.215 107.129C117.287 106.686 115.666 105.742 114.351 104.297C113.453 103.216 112.925 102.031 112.769 100.742C112.613 99.4661 112.75 98.1966 113.179 96.9336C113.596 95.6706 114.228 94.5312 115.074 93.5156C115.972 92.4219 116.994 91.4583 118.14 90.625C119.286 89.7917 120.471 89.0299 121.695 88.3398C118.583 85.9831 116.461 82.9362 115.328 79.1992C114.429 75.9701 114.416 72.7799 115.289 69.6289C116.161 66.4648 117.815 63.7305 120.25 61.4258C122.867 59.069 125.875 57.6107 129.273 57.0508C132.685 56.4779 136.005 56.888 139.234 58.2812C140.302 56.9401 141.532 55.5859 142.925 54.2188C144.319 52.8516 145.829 51.6602 147.457 50.6445C149.097 49.6159 150.81 48.9583 152.593 48.6719C154.377 48.3724 156.187 48.6328 158.023 49.4531C157.242 50.3646 156.461 51.276 155.679 52.1875C155.419 52.474 155.159 52.7669 154.898 53.0664ZM119.898 90.3516L120.035 90.2539C119.996 90.2799 119.95 90.3125 119.898 90.3516ZM132.886 90.9961C133.967 90.7878 134.911 90.319 135.718 89.5898C136.539 88.8607 137.229 88.0404 137.789 87.1289C139.247 84.7201 140.185 82.0833 140.601 79.2188C141.031 76.3542 141.083 73.5417 140.757 70.7812C140.484 67.9297 139.722 65.2083 138.472 62.6172C137.912 61.4844 137.183 60.4362 136.285 59.4727C135.386 58.5091 134.299 57.8841 133.023 57.5977C132.424 57.5586 131.819 57.5586 131.207 57.5977C130.048 57.8581 129.045 58.4049 128.199 59.2383C127.353 60.0716 126.656 60.9896 126.109 61.9922C124.651 64.6615 123.759 67.5651 123.433 70.7031C123.108 73.8411 123.231 76.8945 123.804 79.8633C124.039 81.2435 124.442 82.7409 125.015 84.3555C125.601 85.9701 126.409 87.4023 127.437 88.6523C128.466 89.9023 129.768 90.6836 131.343 90.9961C131.513 90.9961 131.688 90.9961 131.871 90.9961C132.209 91.0091 132.548 91.0091 132.886 90.9961ZM187.554 90.7422C187.867 90.9896 188.225 91.1263 188.629 91.1523C189.032 91.1784 189.436 91.1719 189.84 91.1328C189.983 91.1198 190.119 91.1133 190.25 91.1133V91.5039H173.453V91.1133C173.583 91.1133 173.72 91.1198 173.863 91.1328C174.267 91.1719 174.67 91.1784 175.074 91.1523C175.478 91.1263 175.836 90.9896 176.148 90.7422C176.903 90.0521 177.405 89.2513 177.652 88.3398C177.899 87.4154 178.023 86.6536 178.023 86.0547V64.6094C177.906 62.8516 177.431 61.6862 176.597 61.1133C175.764 60.5273 174.748 60.332 173.55 60.5273C172.366 60.7096 171.187 61.0807 170.015 61.6406C168.843 62.1875 167.86 62.7083 167.066 63.2031C166.272 63.6979 165.855 63.9714 165.816 64.0234C164.983 64.6745 164.175 65.3516 163.394 66.0547V86.0547C163.394 86.6406 163.518 87.3958 163.765 88.3203C164.013 89.2448 164.514 90.0521 165.269 90.7422C165.582 90.9896 165.94 91.1263 166.343 91.1523C166.747 91.1784 167.151 91.1719 167.554 91.1328C167.698 91.1198 167.834 91.1133 167.965 91.1133V91.5039H151.168V91.1133C151.298 91.1133 151.428 91.1198 151.558 91.1328C151.975 91.1719 152.385 91.1784 152.789 91.1523C153.192 91.1263 153.544 90.9896 153.843 90.7422C154.612 90.0651 155.119 89.2643 155.367 88.3398C155.614 87.4154 155.738 86.6602 155.738 86.0742V65.1953C155.725 64.6484 155.634 64.2188 155.465 63.9062C155.295 63.5807 155.08 63.3529 154.82 63.2227C154.56 63.0794 154.299 62.9948 154.039 62.9688C153.778 62.9297 153.557 62.9232 153.375 62.9492C153.192 62.9622 153.082 62.9753 153.043 62.9883V62.5977C153.954 62.6237 154.853 62.5 155.738 62.2266C156.767 61.9141 157.737 61.4909 158.648 60.957C159.56 60.4102 160.373 59.8568 161.09 59.2969C161.806 58.737 162.366 58.2617 162.769 57.8711C163.186 57.4674 163.394 57.2656 163.394 57.2656V65.0195C165.321 63.3268 167.359 61.7969 169.507 60.4297C171.343 59.2057 173.316 58.2812 175.425 57.6562C175.438 57.6562 175.452 57.6562 175.465 57.6562C175.491 57.6562 175.51 57.6497 175.523 57.6367C175.979 57.5195 176.415 57.4284 176.832 57.3633C177.248 57.3112 177.646 57.2786 178.023 57.2656C178.036 57.2656 178.043 57.2656 178.043 57.2656C178.069 57.2656 178.095 57.2656 178.121 57.2656H178.16C179.787 57.2917 181.103 57.7148 182.105 58.5352C183.108 59.3424 183.869 60.3711 184.39 61.6211C184.911 62.8711 185.269 64.1536 185.465 65.4688C185.517 65.7943 185.556 66.1068 185.582 66.4062C185.582 66.4062 185.582 66.4128 185.582 66.4258C185.595 66.6341 185.608 67.7344 185.621 69.7266C185.634 71.7057 185.64 73.9714 185.64 76.5234C185.653 79.0625 185.66 81.3216 185.66 83.3008C185.673 85.2669 185.679 86.25 185.679 86.25C185.705 86.862 185.842 87.6042 186.09 88.4766C186.35 89.349 186.838 90.1042 187.554 90.7422ZM204.937 90.7031C205.25 90.9505 205.608 91.0872 206.011 91.1133C206.415 91.1393 206.819 91.1328 207.222 91.0938C207.366 91.0807 207.502 91.0742 207.632 91.0742V91.4648H190.836V91.0742C190.966 91.0742 191.103 91.0807 191.246 91.0938C191.649 91.1328 192.053 91.1393 192.457 91.1133C192.86 91.0872 193.218 90.9505 193.531 90.7031C194.286 90.013 194.787 89.2122 195.035 88.3008C195.282 87.3763 195.406 86.6211 195.406 86.0352V65.2344C195.393 64.6745 195.302 64.2383 195.132 63.9258C194.963 63.6133 194.748 63.3854 194.488 63.2422C194.228 63.099 193.967 63.0143 193.707 62.9883C193.446 62.9622 193.225 62.9622 193.043 62.9883C192.86 63.0013 192.75 63.0143 192.711 63.0273V62.6172C193.622 62.6562 194.521 62.5391 195.406 62.2656C196.435 61.9401 197.405 61.5104 198.316 60.9766C199.228 60.4427 200.041 59.8958 200.757 59.3359C201.474 58.763 202.034 58.2812 202.437 57.8906C202.854 57.487 203.062 57.2852 203.062 57.2852V85.9961C203.062 86.5951 203.186 87.3568 203.433 88.2812C203.681 89.2057 204.182 90.013 204.937 90.7031ZM204.058 47.4219L199.234 52.2656L194.39 47.4219L199.234 42.5977L204.058 47.4219ZM227.418 91.4844H210.64V91.0938C211.018 91.1328 211.396 91.1523 211.773 91.1523C211.942 91.1523 212.164 91.1458 212.437 91.1328C212.711 91.1068 213.004 90.9766 213.316 90.7422C214.084 90.0521 214.592 89.2448 214.84 88.3203C215.087 87.3958 215.211 86.6406 215.211 86.0547V57.207H206.187V56.4258H215.211V51.2305C215.211 48.7826 215.797 46.5299 216.968 44.4727C218.075 42.5065 219.566 40.8984 221.441 39.6484C223.785 38.112 226.337 37.3438 229.097 37.3438C230.946 37.3438 232.691 37.6888 234.332 38.3789C235.972 39.056 237.424 40 238.687 41.2109L235.699 43.6719C234.957 42.1354 234.032 40.8854 232.925 39.9219C231.832 38.9583 230.621 38.3594 229.293 38.125H228.59C227.457 38.151 226.571 38.2812 225.933 38.5156L225.757 38.5742C225.406 38.7305 225.015 39.1276 224.586 39.7656C223.505 41.3672 222.932 44.5508 222.867 49.3164V56.4258H232.203V57.207H222.867V86.1133C222.867 88.0534 223.492 89.5964 224.742 90.7422C225.106 91.0156 225.627 91.1523 226.304 91.1523C226.669 91.1523 227.04 91.1328 227.418 91.0938V91.4844ZM250.093 90.7031C250.406 90.9505 250.764 91.0872 251.168 91.1133C251.571 91.1393 251.975 91.1328 252.379 91.0938C252.522 91.0807 252.659 91.0742 252.789 91.0742V91.4648H235.992V91.0742C236.122 91.0742 236.259 91.0807 236.402 91.0938C236.806 91.1328 237.209 91.1393 237.613 91.1133C238.017 91.0872 238.375 90.9505 238.687 90.7031C239.442 90.013 239.944 89.2122 240.191 88.3008C240.438 87.3763 240.562 86.6211 240.562 86.0352V65.2344C240.549 64.6745 240.458 64.2383 240.289 63.9258C240.119 63.6133 239.905 63.3854 239.644 63.2422C239.384 63.099 239.123 63.0143 238.863 62.9883C238.603 62.9622 238.381 62.9622 238.199 62.9883C238.017 63.0013 237.906 63.0143 237.867 63.0273V62.6172C238.778 62.6562 239.677 62.5391 240.562 62.2656C241.591 61.9401 242.561 61.5104 243.472 60.9766C244.384 60.4427 245.198 59.8958 245.914 59.3359C246.63 58.763 247.19 58.2812 247.593 57.8906C248.01 57.487 248.218 57.2852 248.218 57.2852V85.9961C248.218 86.5951 248.342 87.3568 248.59 88.2812C248.837 89.2057 249.338 90.013 250.093 90.7031ZM249.215 47.4219L244.39 52.2656L239.547 47.4219L244.39 42.5977L249.215 47.4219Z" fill="#17191C"/>
<path d="M162.142 102.024V100.93H169.778V102.024H166.576V111.112H165.343V102.024H162.142ZM170.729 111.112V103.476H171.862V104.629H171.942C172.081 104.252 172.333 103.945 172.698 103.71C173.062 103.474 173.473 103.357 173.931 103.357C174.017 103.357 174.124 103.358 174.254 103.362C174.383 103.365 174.481 103.37 174.547 103.377V104.57C174.507 104.56 174.416 104.545 174.274 104.525C174.134 104.502 173.987 104.49 173.831 104.49C173.46 104.49 173.129 104.568 172.837 104.724C172.548 104.876 172.32 105.088 172.151 105.36C171.985 105.629 171.902 105.935 171.902 106.28V111.112H170.729ZM178.185 111.291C177.701 111.291 177.262 111.2 176.868 111.018C176.473 110.832 176.16 110.565 175.928 110.217C175.696 109.866 175.58 109.442 175.58 108.945C175.58 108.507 175.666 108.153 175.838 107.881C176.011 107.606 176.241 107.39 176.529 107.234C176.818 107.079 177.136 106.963 177.484 106.886C177.835 106.807 178.188 106.744 178.543 106.698C179.007 106.638 179.383 106.593 179.672 106.563C179.963 106.53 180.175 106.475 180.308 106.399C180.444 106.323 180.512 106.19 180.512 106.002V105.962C180.512 105.471 180.378 105.09 180.109 104.818C179.844 104.546 179.441 104.411 178.901 104.411C178.341 104.411 177.902 104.533 177.583 104.778C177.265 105.024 177.042 105.286 176.912 105.564L175.799 105.166C175.998 104.702 176.263 104.341 176.594 104.082C176.929 103.821 177.293 103.638 177.688 103.536C178.086 103.43 178.477 103.377 178.861 103.377C179.106 103.377 179.388 103.406 179.706 103.466C180.028 103.522 180.338 103.64 180.636 103.819C180.938 103.998 181.188 104.268 181.387 104.629C181.586 104.991 181.685 105.475 181.685 106.081V111.112H180.512V110.078H180.452C180.373 110.244 180.24 110.421 180.054 110.61C179.869 110.799 179.622 110.96 179.314 111.092C179.005 111.225 178.629 111.291 178.185 111.291ZM178.364 110.237C178.828 110.237 179.219 110.146 179.537 109.964C179.859 109.782 180.101 109.546 180.263 109.258C180.429 108.97 180.512 108.666 180.512 108.348V107.274C180.462 107.334 180.353 107.389 180.184 107.438C180.018 107.485 179.826 107.526 179.607 107.563C179.391 107.596 179.181 107.626 178.976 107.652C178.773 107.675 178.609 107.695 178.483 107.712C178.178 107.752 177.893 107.816 177.628 107.906C177.366 107.992 177.154 108.123 176.992 108.298C176.833 108.471 176.753 108.706 176.753 109.004C176.753 109.412 176.904 109.72 177.206 109.929C177.511 110.135 177.897 110.237 178.364 110.237ZM186.929 111.271C186.213 111.271 185.596 111.102 185.079 110.764C184.562 110.426 184.165 109.961 183.886 109.367C183.608 108.774 183.469 108.096 183.469 107.334C183.469 106.558 183.611 105.874 183.896 105.281C184.185 104.684 184.586 104.218 185.099 103.884C185.616 103.546 186.22 103.377 186.909 103.377C187.446 103.377 187.93 103.476 188.361 103.675C188.792 103.874 189.144 104.152 189.42 104.51C189.695 104.868 189.865 105.286 189.932 105.763H188.758C188.669 105.415 188.47 105.107 188.162 104.838C187.857 104.566 187.446 104.43 186.929 104.43C186.471 104.43 186.07 104.55 185.726 104.788C185.384 105.024 185.118 105.357 184.925 105.788C184.736 106.215 184.642 106.717 184.642 107.294C184.642 107.884 184.735 108.398 184.92 108.835C185.109 109.273 185.374 109.613 185.716 109.854C186.06 110.096 186.465 110.217 186.929 110.217C187.234 110.217 187.51 110.164 187.759 110.058C188.008 109.952 188.218 109.8 188.39 109.601C188.563 109.402 188.685 109.163 188.758 108.885H189.932C189.865 109.336 189.701 109.742 189.439 110.103C189.181 110.461 188.838 110.746 188.41 110.958C187.986 111.167 187.492 111.271 186.929 111.271ZM192.741 108.328L192.721 106.877H192.959L196.3 103.476H197.752L194.192 107.075H194.093L192.741 108.328ZM191.647 111.112V100.93H192.82V111.112H191.647ZM196.499 111.112L193.516 107.334L194.351 106.519L197.991 111.112H196.499ZM199.262 111.112V103.476H200.435V111.112H199.262ZM199.859 102.203C199.63 102.203 199.433 102.125 199.267 101.97C199.105 101.814 199.023 101.627 199.023 101.408C199.023 101.189 199.105 101.002 199.267 100.846C199.433 100.69 199.63 100.612 199.859 100.612C200.087 100.612 200.283 100.69 200.445 100.846C200.611 101.002 200.694 101.189 200.694 101.408C200.694 101.627 200.611 101.814 200.445 101.97C200.283 102.125 200.087 102.203 199.859 102.203ZM203.758 106.519V111.112H202.584V103.476H203.718V104.669H203.817C203.996 104.281 204.268 103.97 204.633 103.734C204.997 103.496 205.468 103.377 206.045 103.377C206.562 103.377 207.014 103.483 207.402 103.695C207.79 103.903 208.091 104.222 208.307 104.649C208.522 105.073 208.63 105.61 208.63 106.26V111.112H207.457V106.34C207.457 105.74 207.301 105.272 206.989 104.938C206.678 104.6 206.25 104.43 205.707 104.43C205.332 104.43 204.997 104.512 204.702 104.674C204.411 104.836 204.18 105.073 204.011 105.385C203.842 105.697 203.758 106.074 203.758 106.519ZM213.856 114.135C213.289 114.135 212.802 114.062 212.395 113.916C211.987 113.774 211.647 113.585 211.375 113.35C211.107 113.118 210.893 112.869 210.734 112.604L211.669 111.948C211.775 112.087 211.909 112.246 212.071 112.425C212.234 112.607 212.456 112.765 212.738 112.897C213.023 113.033 213.396 113.101 213.856 113.101C214.473 113.101 214.981 112.952 215.382 112.653C215.784 112.355 215.984 111.888 215.984 111.252V109.7H215.885C215.798 109.84 215.676 110.012 215.517 110.217C215.361 110.42 215.136 110.6 214.841 110.759C214.549 110.915 214.154 110.993 213.657 110.993C213.041 110.993 212.487 110.847 211.997 110.555C211.51 110.264 211.123 109.84 210.838 109.283C210.557 108.726 210.416 108.05 210.416 107.254C210.416 106.472 210.553 105.791 210.829 105.211C211.104 104.628 211.486 104.177 211.977 103.859C212.467 103.537 213.034 103.377 213.677 103.377C214.174 103.377 214.569 103.459 214.86 103.625C215.155 103.787 215.381 103.973 215.537 104.182C215.696 104.387 215.818 104.556 215.904 104.689H216.024V103.476H217.157V111.331C217.157 111.987 217.008 112.521 216.71 112.932C216.415 113.346 216.017 113.649 215.517 113.842C215.02 114.037 214.466 114.135 213.856 114.135ZM213.816 109.939C214.287 109.939 214.685 109.831 215.01 109.616C215.334 109.4 215.581 109.091 215.75 108.686C215.919 108.282 216.004 107.798 216.004 107.234C216.004 106.684 215.921 106.199 215.755 105.778C215.59 105.357 215.344 105.027 215.02 104.788C214.695 104.55 214.294 104.43 213.816 104.43C213.319 104.43 212.905 104.556 212.574 104.808C212.245 105.06 211.998 105.398 211.833 105.823C211.67 106.247 211.589 106.717 211.589 107.234C211.589 107.765 211.672 108.234 211.838 108.641C212.007 109.046 212.255 109.364 212.583 109.596C212.915 109.825 213.326 109.939 213.816 109.939ZM223.998 113.976C223.799 113.976 223.622 113.959 223.466 113.926C223.311 113.896 223.203 113.867 223.143 113.837L223.441 112.803C223.726 112.876 223.978 112.902 224.197 112.882C224.416 112.862 224.61 112.765 224.779 112.589C224.951 112.417 225.109 112.136 225.251 111.749L225.47 111.152L222.646 103.476H223.919L226.027 109.561H226.106L228.214 103.476H229.487L226.245 112.226C226.1 112.62 225.919 112.947 225.704 113.205C225.488 113.467 225.238 113.661 224.953 113.787C224.671 113.913 224.353 113.976 223.998 113.976ZM233.864 111.271C233.175 111.271 232.57 111.107 232.05 110.779C231.533 110.451 231.128 109.992 230.837 109.402C230.548 108.812 230.404 108.123 230.404 107.334C230.404 106.538 230.548 105.844 230.837 105.251C231.128 104.658 231.533 104.197 232.05 103.869C232.57 103.541 233.175 103.377 233.864 103.377C234.554 103.377 235.157 103.541 235.674 103.869C236.194 104.197 236.599 104.658 236.887 105.251C237.179 105.844 237.325 106.538 237.325 107.334C237.325 108.123 237.179 108.812 236.887 109.402C236.599 109.992 236.194 110.451 235.674 110.779C235.157 111.107 234.554 111.271 233.864 111.271ZM233.864 110.217C234.388 110.217 234.819 110.083 235.157 109.815C235.495 109.546 235.745 109.193 235.908 108.756C236.07 108.318 236.151 107.844 236.151 107.334C236.151 106.823 236.07 106.348 235.908 105.907C235.745 105.466 235.495 105.11 235.157 104.838C234.819 104.566 234.388 104.43 233.864 104.43C233.341 104.43 232.91 104.566 232.572 104.838C232.234 105.11 231.983 105.466 231.821 105.907C231.659 106.348 231.577 106.823 231.577 107.334C231.577 107.844 231.659 108.318 231.821 108.756C231.983 109.193 232.234 109.546 232.572 109.815C232.91 110.083 233.341 110.217 233.864 110.217ZM243.928 107.99V103.476H245.101V111.112H243.928V109.82H243.849C243.67 110.207 243.391 110.537 243.013 110.809C242.635 111.078 242.158 111.212 241.582 111.212C241.104 111.212 240.68 111.107 240.309 110.899C239.938 110.686 239.646 110.368 239.434 109.944C239.222 109.516 239.116 108.978 239.116 108.328V103.476H240.289V108.249C240.289 108.805 240.445 109.25 240.756 109.581C241.071 109.912 241.472 110.078 241.959 110.078C242.251 110.078 242.548 110.004 242.849 109.854C243.154 109.705 243.409 109.477 243.615 109.168C243.824 108.86 243.928 108.467 243.928 107.99ZM247.25 111.112V103.476H248.384V104.629H248.463C248.603 104.252 248.855 103.945 249.219 103.71C249.584 103.474 249.995 103.357 250.452 103.357C250.538 103.357 250.646 103.358 250.775 103.362C250.904 103.365 251.002 103.37 251.069 103.377V104.57C251.029 104.56 250.938 104.545 250.795 104.525C250.656 104.502 250.508 104.49 250.353 104.49C249.981 104.49 249.65 104.568 249.358 104.724C249.07 104.876 248.841 105.088 248.672 105.36C248.507 105.629 248.424 105.935 248.424 106.28V111.112H247.25ZM256.556 100.93H258.028L261.488 109.382H261.607L265.067 100.93H266.539V111.112H265.385V103.377H265.286L262.104 111.112H260.991L257.809 103.377H257.709V111.112H256.556V100.93ZM272.054 111.271C271.318 111.271 270.683 111.109 270.15 110.784C269.619 110.456 269.21 109.999 268.922 109.412C268.637 108.822 268.494 108.136 268.494 107.354C268.494 106.572 268.637 105.882 268.922 105.286C269.21 104.686 269.611 104.218 270.125 103.884C270.642 103.546 271.245 103.377 271.934 103.377C272.332 103.377 272.725 103.443 273.113 103.575C273.5 103.708 273.853 103.923 274.172 104.222C274.49 104.517 274.743 104.908 274.932 105.395C275.121 105.882 275.216 106.482 275.216 107.195V107.692H269.329V106.678H274.022C274.022 106.247 273.936 105.862 273.764 105.524C273.595 105.186 273.353 104.919 273.038 104.724C272.726 104.528 272.359 104.43 271.934 104.43C271.467 104.43 271.063 104.546 270.721 104.778C270.383 105.007 270.123 105.305 269.941 105.673C269.758 106.041 269.667 106.436 269.667 106.857V107.533C269.667 108.109 269.767 108.598 269.966 108.999C270.168 109.397 270.448 109.7 270.806 109.909C271.164 110.115 271.58 110.217 272.054 110.217C272.362 110.217 272.64 110.174 272.889 110.088C273.141 109.999 273.358 109.866 273.54 109.69C273.722 109.511 273.863 109.289 273.963 109.024L275.096 109.342C274.977 109.727 274.776 110.065 274.495 110.357C274.213 110.645 273.865 110.87 273.451 111.033C273.036 111.192 272.571 111.271 272.054 111.271ZM278.174 106.519V111.112H277V103.476H278.134V104.669H278.233C278.412 104.281 278.684 103.97 279.049 103.734C279.413 103.496 279.884 103.377 280.461 103.377C280.978 103.377 281.43 103.483 281.818 103.695C282.206 103.903 282.507 104.222 282.723 104.649C282.938 105.073 283.046 105.61 283.046 106.26V111.112H281.873V106.34C281.873 105.74 281.717 105.272 281.405 104.938C281.094 104.6 280.666 104.43 280.123 104.43C279.748 104.43 279.413 104.512 279.118 104.674C278.827 104.836 278.596 105.073 278.427 105.385C278.258 105.697 278.174 106.074 278.174 106.519ZM288.511 103.476V104.47H284.553V103.476H288.511ZM285.707 101.646H286.88V108.925C286.88 109.256 286.928 109.505 287.024 109.671C287.124 109.833 287.25 109.942 287.402 109.999C287.558 110.052 287.722 110.078 287.894 110.078C288.024 110.078 288.13 110.072 288.213 110.058C288.295 110.042 288.362 110.028 288.411 110.019L288.65 111.073C288.571 111.102 288.459 111.132 288.317 111.162C288.174 111.195 287.994 111.212 287.775 111.212C287.444 111.212 287.119 111.14 286.801 110.998C286.486 110.855 286.224 110.638 286.015 110.347C285.81 110.055 285.707 109.687 285.707 109.243V101.646ZM292.523 111.291C292.039 111.291 291.6 111.2 291.205 111.018C290.811 110.832 290.498 110.565 290.266 110.217C290.034 109.866 289.918 109.442 289.918 108.945C289.918 108.507 290.004 108.153 290.176 107.881C290.349 107.606 290.579 107.39 290.867 107.234C291.156 107.079 291.474 106.963 291.822 106.886C292.173 106.807 292.526 106.744 292.881 106.698C293.345 106.638 293.721 106.593 294.009 106.563C294.301 106.53 294.513 106.475 294.646 106.399C294.782 106.323 294.85 106.19 294.85 106.002V105.962C294.85 105.471 294.715 105.09 294.447 104.818C294.182 104.546 293.779 104.411 293.239 104.411C292.679 104.411 292.24 104.533 291.921 104.778C291.603 105.024 291.379 105.286 291.25 105.564L290.137 105.166C290.335 104.702 290.601 104.341 290.932 104.082C291.267 103.821 291.631 103.638 292.026 103.536C292.423 103.43 292.815 103.377 293.199 103.377C293.444 103.377 293.726 103.406 294.044 103.466C294.366 103.522 294.676 103.64 294.974 103.819C295.276 103.998 295.526 104.268 295.725 104.629C295.923 104.991 296.023 105.475 296.023 106.081V111.112H294.85V110.078H294.79C294.71 110.244 294.578 110.421 294.392 110.61C294.207 110.799 293.96 110.96 293.651 111.092C293.343 111.225 292.967 111.291 292.523 111.291ZM292.702 110.237C293.166 110.237 293.557 110.146 293.875 109.964C294.197 109.782 294.439 109.546 294.601 109.258C294.767 108.97 294.85 108.666 294.85 108.348V107.274C294.8 107.334 294.691 107.389 294.522 107.438C294.356 107.485 294.164 107.526 293.945 107.563C293.729 107.596 293.519 107.626 293.313 107.652C293.111 107.675 292.947 107.695 292.821 107.712C292.516 107.752 292.231 107.816 291.966 107.906C291.704 107.992 291.492 108.123 291.33 108.298C291.171 108.471 291.091 108.706 291.091 109.004C291.091 109.412 291.242 109.72 291.544 109.929C291.848 110.135 292.235 110.237 292.702 110.237ZM299.338 100.93V111.112H298.164V100.93H299.338ZM311.151 103.476C311.092 102.972 310.85 102.581 310.426 102.303C310.001 102.024 309.481 101.885 308.865 101.885C308.414 101.885 308.019 101.958 307.681 102.104C307.347 102.25 307.085 102.45 306.896 102.705C306.71 102.961 306.617 103.251 306.617 103.575C306.617 103.847 306.682 104.081 306.811 104.276C306.944 104.469 307.113 104.629 307.318 104.759C307.524 104.885 307.739 104.989 307.965 105.072C308.19 105.151 308.397 105.216 308.586 105.266L309.62 105.544C309.885 105.614 310.18 105.71 310.505 105.832C310.833 105.955 311.147 106.122 311.445 106.335C311.746 106.543 311.995 106.812 312.191 107.14C312.386 107.468 312.484 107.871 312.484 108.348C312.484 108.898 312.34 109.395 312.051 109.84C311.766 110.284 311.349 110.637 310.798 110.899C310.252 111.16 309.587 111.291 308.805 111.291C308.076 111.291 307.444 111.174 306.911 110.938C306.38 110.703 305.963 110.375 305.658 109.954C305.356 109.533 305.186 109.044 305.146 108.487H306.419C306.452 108.872 306.581 109.19 306.806 109.442C307.035 109.69 307.323 109.876 307.671 109.999C308.023 110.118 308.401 110.178 308.805 110.178C309.276 110.178 309.698 110.101 310.073 109.949C310.447 109.793 310.744 109.578 310.963 109.303C311.181 109.024 311.291 108.699 311.291 108.328C311.291 107.99 311.196 107.715 311.007 107.503C310.818 107.291 310.57 107.118 310.262 106.986C309.953 106.853 309.62 106.737 309.262 106.638L308.009 106.28C307.214 106.051 306.584 105.725 306.12 105.301C305.656 104.876 305.424 104.321 305.424 103.635C305.424 103.065 305.578 102.568 305.887 102.144C306.198 101.716 306.616 101.385 307.139 101.149C307.666 100.911 308.255 100.791 308.904 100.791C309.561 100.791 310.144 100.909 310.654 101.144C311.165 101.376 311.569 101.694 311.867 102.099C312.169 102.503 312.328 102.962 312.345 103.476H311.151ZM317.673 103.476V104.47H313.716V103.476H317.673ZM314.869 101.646H316.042V108.925C316.042 109.256 316.09 109.505 316.186 109.671C316.286 109.833 316.412 109.942 316.564 109.999C316.72 110.052 316.884 110.078 317.056 110.078C317.186 110.078 317.292 110.072 317.375 110.058C317.458 110.042 317.524 110.028 317.574 110.019L317.812 111.073C317.733 111.102 317.622 111.132 317.479 111.162C317.337 111.195 317.156 111.212 316.937 111.212C316.606 111.212 316.281 111.14 315.963 110.998C315.648 110.855 315.386 110.638 315.177 110.347C314.972 110.055 314.869 109.687 314.869 109.243V101.646ZM321.685 111.291C321.201 111.291 320.762 111.2 320.368 111.018C319.973 110.832 319.66 110.565 319.428 110.217C319.196 109.866 319.08 109.442 319.08 108.945C319.08 108.507 319.166 108.153 319.338 107.881C319.511 107.606 319.741 107.39 320.029 107.234C320.318 107.079 320.636 106.963 320.984 106.886C321.335 106.807 321.688 106.744 322.043 106.698C322.507 106.638 322.883 106.593 323.172 106.563C323.463 106.53 323.675 106.475 323.808 106.399C323.944 106.323 324.012 106.19 324.012 106.002V105.962C324.012 105.471 323.878 105.09 323.609 104.818C323.344 104.546 322.941 104.411 322.401 104.411C321.841 104.411 321.402 104.533 321.083 104.778C320.765 105.024 320.542 105.286 320.412 105.564L319.299 105.166C319.498 104.702 319.763 104.341 320.094 104.082C320.429 103.821 320.793 103.638 321.188 103.536C321.586 103.43 321.977 103.377 322.361 103.377C322.606 103.377 322.888 103.406 323.206 103.466C323.528 103.522 323.838 103.64 324.136 103.819C324.438 103.998 324.688 104.268 324.887 104.629C325.086 104.991 325.185 105.475 325.185 106.081V111.112H324.012V110.078H323.952C323.873 110.244 323.74 110.421 323.554 110.61C323.369 110.799 323.122 110.96 322.814 111.092C322.505 111.225 322.129 111.291 321.685 111.291ZM321.864 110.237C322.328 110.237 322.719 110.146 323.037 109.964C323.359 109.782 323.601 109.546 323.763 109.258C323.929 108.97 324.012 108.666 324.012 108.348V107.274C323.962 107.334 323.853 107.389 323.684 107.438C323.518 107.485 323.326 107.526 323.107 107.563C322.891 107.596 322.681 107.626 322.476 107.652C322.273 107.675 322.109 107.695 321.983 107.712C321.678 107.752 321.393 107.816 321.128 107.906C320.866 107.992 320.654 108.123 320.492 108.298C320.333 108.471 320.253 108.706 320.253 109.004C320.253 109.412 320.404 109.72 320.706 109.929C321.011 110.135 321.397 110.237 321.864 110.237ZM330.648 103.476V104.47H326.69V103.476H330.648ZM327.844 101.646H329.017V108.925C329.017 109.256 329.065 109.505 329.161 109.671C329.26 109.833 329.386 109.942 329.539 109.999C329.695 110.052 329.859 110.078 330.031 110.078C330.16 110.078 330.266 110.072 330.349 110.058C330.432 110.042 330.498 110.028 330.548 110.019L330.787 111.073C330.707 111.102 330.596 111.132 330.454 111.162C330.311 111.195 330.131 111.212 329.912 111.212C329.58 111.212 329.256 111.14 328.937 110.998C328.622 110.855 328.361 110.638 328.152 110.347C327.946 110.055 327.844 109.687 327.844 109.243V101.646ZM335.532 111.271C334.796 111.271 334.162 111.109 333.628 110.784C333.098 110.456 332.688 109.999 332.4 109.412C332.115 108.822 331.973 108.136 331.973 107.354C331.973 106.572 332.115 105.882 332.4 105.286C332.688 104.686 333.089 104.218 333.603 103.884C334.12 103.546 334.723 103.377 335.413 103.377C335.811 103.377 336.203 103.443 336.591 103.575C336.979 103.708 337.332 103.923 337.65 104.222C337.968 104.517 338.222 104.908 338.411 105.395C338.6 105.882 338.694 106.482 338.694 107.195V107.692H332.808V106.678H337.501C337.501 106.247 337.415 105.862 337.242 105.524C337.073 105.186 336.831 104.919 336.517 104.724C336.205 104.528 335.837 104.43 335.413 104.43C334.946 104.43 334.541 104.546 334.2 104.778C333.862 105.007 333.602 105.305 333.419 105.673C333.237 106.041 333.146 106.436 333.146 106.857V107.533C333.146 108.109 333.245 108.598 333.444 108.999C333.646 109.397 333.926 109.7 334.284 109.909C334.642 110.115 335.058 110.217 335.532 110.217C335.84 110.217 336.119 110.174 336.367 110.088C336.619 109.999 336.836 109.866 337.019 109.69C337.201 109.511 337.342 109.289 337.441 109.024L338.575 109.342C338.455 109.727 338.255 110.065 337.973 110.357C337.691 110.645 337.343 110.87 336.929 111.033C336.515 111.192 336.049 111.271 335.532 111.271ZM341.334 111.192C341.089 111.192 340.878 111.104 340.703 110.928C340.527 110.753 340.439 110.542 340.439 110.297C340.439 110.052 340.527 109.841 340.703 109.666C340.878 109.49 341.089 109.402 341.334 109.402C341.579 109.402 341.79 109.49 341.965 109.666C342.141 109.841 342.229 110.052 342.229 110.297C342.229 110.459 342.187 110.609 342.105 110.744C342.025 110.88 341.917 110.99 341.781 111.073C341.649 111.152 341.5 111.192 341.334 111.192Z" fill="#92979D"/>
<defs>
<linearGradient id="paint0_linear_145_4630" x1="341.569" y1="34.79" x2="341.569" y2="54.2215" gradientUnits="userSpaceOnUse">
<stop stop-color="#112F61"/>
<stop offset="1" stop-color="#4285F4"/>
</linearGradient>
<linearGradient id="paint1_linear_145_4630" x1="339.711" y1="43.8301" x2="339.711" y2="60.4007" gradientUnits="userSpaceOnUse">
<stop stop-color="#112F61"/>
<stop offset="1" stop-color="#4285F4"/>
</linearGradient>
<linearGradient id="paint2_linear_145_4630" x1="339.222" y1="51.7383" x2="339.222" y2="67.2363" gradientUnits="userSpaceOnUse">
<stop stop-color="#112F61"/>
<stop offset="1" stop-color="#4285F4"/>
</linearGradient>
<linearGradient id="paint3_linear_145_4630" x1="339.515" y1="61.4424" x2="339.515" y2="73.8043" gradientUnits="userSpaceOnUse">
<stop stop-color="#112F61"/>
<stop offset="1" stop-color="#4285F4"/>
</linearGradient>
<linearGradient id="paint4_linear_145_4630" x1="346.071" y1="69.8994" x2="346.071" y2="80.6358" gradientUnits="userSpaceOnUse">
<stop stop-color="#112F61"/>
<stop offset="1" stop-color="#4285F4"/>
</linearGradient>
<linearGradient id="paint5_linear_145_4630" x1="349.887" y1="84.9863" x2="349.887" y2="91.3988" gradientUnits="userSpaceOnUse">
<stop stop-color="#112F61"/>
<stop offset="1" stop-color="#4285F4"/>
</linearGradient>
<linearGradient id="paint6_linear_145_4630" x1="348.713" y1="77.0566" x2="348.713" y2="85.9195" gradientUnits="userSpaceOnUse">
<stop stop-color="#112F61"/>
<stop offset="1" stop-color="#4285F4"/>
</linearGradient>
<linearGradient id="paint7_linear_145_4630" x1="326.429" y1="2" x2="326.429" y2="95.5669" gradientUnits="userSpaceOnUse">
<stop stop-color="#08D75F"/>
<stop offset="1" stop-color="#4285F4"/>
</linearGradient>
<linearGradient id="paint8_linear_145_4630" x1="316.714" y1="6.06836" x2="316.714" y2="61.4222" gradientUnits="userSpaceOnUse">
<stop stop-color="#08D75F"/>
<stop offset="1" stop-color="#4285F4"/>
</linearGradient>
</defs>
</svg>
